<svg id="e7Uit0w81Hz1" xmlns="http://www.w3.org/2000/svg" xmlns:xlink="http://www.w3.org/1999/xlink" viewBox="0 0 512.001 512.001" shape-rendering="geometricPrecision" text-rendering="geometricPrecision"><g id="e7Uit0w81Hz2" transform="translate(.000002 0.000007)"><g><path d="M401.096,348.06c.197-.052.398-.101.595-.154.229-.06.45-.122.678-.183-.435.087-.859.201-1.273.337Z"/></g></g><g id="e7Uit0w81Hz5" transform="translate(-.037197-1.945808)"><path d="M424.735,448.244c-.063-.438-5.973-41.375-8.959-81.907-2.796.797-5.64,1.588-8.579,2.365-4.131,1.094-8.329,2.141-12.575,3.145c2.064,26.425,5.225,52.448,7.152,67.186h-13.691c-4.184-10.424-12.49-33.038-18.618-61.896-3.623.671-7.265,1.317-10.933,1.92-3.384.56-6.835,1.089-10.311,1.599c8.958,42.792,22.331,72.285,22.94,73.612c1.752,3.825,5.573,6.276,9.779,6.276h33.15c3.123,0,6.091-1.357,8.135-3.718s2.958-5.492,2.51-8.582Z"/></g><g id="e7Uit0w81Hz7"><g><path d="M321.358,363.633c.14-.095.285-.183.43-.271-.145.088-.289.176-.43.271Z"/></g></g><g id="e7Uit0w81Hz10"><g><path d="M320.528,364.254c.128-.106.261-.207.395-.307-.133.1-.265.2-.395.307Z"/></g></g><g id="e7Uit0w81Hz13"><g><path d="M319.764,364.95c.118-.118.241-.23.365-.343-.124.112-.247.224-.365.343Z"/></g></g><g id="e7Uit0w81Hz16"><g><path d="M319.069,365.717c.108-.131.22-.256.333-.382-.113.125-.226.25-.333.382Z"/></g></g><g id="e7Uit0w81Hz19"><g><path d="M316.678,371.407c.018-.175.045-.349.072-.522-.028.173-.054.346-.072.522Z"/></g></g><g id="e7Uit0w81Hz22"><g><path d="M316.841,370.358c.035-.173.08-.343.124-.513-.044.17-.088.34-.124.513Z"/></g></g><g id="e7Uit0w81Hz25"><g><path d="M316.617,372.485c.001-.18.011-.357.019-.535-.008.179-.017.356-.019.535Z"/></g></g><g id="e7Uit0w81Hz28"><g><path d="M322.246,363.094c.154-.084.312-.159.47-.236-.158.077-.316.152-.47.236Z"/></g></g><g id="e7Uit0w81Hz31"><g><path d="M317.105,369.343c.053-.17.113-.336.174-.501-.061.165-.122.331-.174.501Z"/></g></g><g id="e7Uit0w81Hz34"><g><path d="M317.914,367.431c.084-.154.174-.304.265-.454-.092.15-.183.299-.265.454Z"/></g></g><g id="e7Uit0w81Hz37"><g><path d="M317.463,368.366c.069-.164.145-.324.223-.483-.078.159-.153.319-.223.483Z"/></g></g><g id="e7Uit0w81Hz40"><g><path d="M318.45,366.545c.096-.142.198-.281.301-.418-.103.137-.205.275-.301.418Z"/></g></g><g id="e7Uit0w81Hz43"><g><path d="M323.19,362.641c.168-.07.34-.134.512-.196-.174.063-.345.125-.512.196Z"/></g></g><g id="e7Uit0w81Hz46" transform="translate(-.066588-.91058)"><g><path d="M346.635,448.247c-.049-.341-4.548-31.508-7.675-66.297-3.437.452-6.889.887-10.368,1.285-.415.047-.829.07-1.239.07-5.392,0-10.043-4.047-10.672-9.531-.029-.248-.037-.495-.047-.741.005.123.001.245.011.369c2.056,25.835,5.137,51.165,7.028,65.633h-13.691c-4.367-10.878-13.224-35.016-19.399-65.642-.871-5.066-5.286-8.916-10.6-8.916-1.105,0-2.17.168-3.173.478.083-.006.165-.013.247-.019c5.902-.487,11.111,3.925,11.594,9.846.483,5.92-3.925,11.111-9.846,11.594-2.487.202-4.911.379-7.325.53c8.907,39.432,21.029,66.162,21.58,67.364c1.752,3.825,5.573,6.277,9.78,6.277h33.15c3.121,0,6.09-1.357,8.134-3.717c2.042-2.361,2.959-5.493,2.511-8.583Z"/></g></g><g id="e7Uit0w81Hz49"><g><path d="M325.226,362.014c.19-.039.384-.068.578-.096-.194.029-.388.058-.578.096Z"/></g></g><g id="e7Uit0w81Hz52"><g><path d="M324.183,362.28c.181-.056.366-.103.552-.151-.186.048-.371.095-.552.151Z"/></g></g><g id="e7Uit0w81Hz55" transform="translate(.000027 0.000082)"><g><path d="M226.366,448.246c-.047-.323-4.174-28.907-7.267-61.871-4.584-.478-9.135-1.082-13.632-1.822-2.776-.454-5.531-.971-8.275-1.522c1.99,22.356,4.557,43.341,6.212,56.003h-13.694c-4.23-10.528-12.67-33.515-18.834-62.961-6.249-2.073-12.372-4.405-18.334-7.012-1.806-.787-3.593-1.608-5.368-2.444c8.635,50.177,24.904,86.092,25.618,87.65c1.751,3.826,5.573,6.278,9.78,6.278h33.151c3.122,0,6.091-1.357,8.134-3.718c2.041-2.359,2.958-5.492,2.509-8.581Z"/></g></g><g id="e7Uit0w81Hz58"><g><path d="M288.652,374.78c-.483-5.921-5.692-10.333-11.594-9.846-.083.006-.165.013-.247.019-10.728.869-19.931,1.209-32.725,1.209-11.872,0-23.688-.954-35.141-2.84-16.747-2.729-32.824-7.429-47.794-13.976-9.911-4.321-19.306-9.456-27.948-15.278-2.082-1.395-4.186-2.884-6.254-4.423-4.767-3.545-11.504-2.559-15.051,2.207-3.546,4.766-2.559,11.504,2.206,15.051.738.549,1.483,1.08,2.228,1.616.026-1.972.067-3.935.133-5.883.202-5.937,5.213-10.593,11.116-10.383c5.937.202,10.586,5.179,10.384,11.117-.206,6.072-.185,12.33.005,18.622c3.016,1.613,6.085,3.157,9.205,4.625c1.776.836,3.563,1.658,5.368,2.444c5.962,2.607,12.085,4.939,18.334,7.012c8.546,2.833,17.339,5.154,26.316,6.957c2.744.551,5.499,1.069,8.275,1.522c4.497.74,9.048,1.345,13.633,1.822c8.247.86,16.605,1.299,24.985,1.299c10.413,0,18.826-.23,27.394-.769c2.414-.152,4.839-.327,7.325-.53c5.921-.483,10.33-5.674,9.847-11.594Z"/></g></g><g id="e7Uit0w81Hz61"><g><path d="M358.127,136.86c-.01.016-.017.031-.026.047.045-.08.094-.157.137-.238-.037.066-.075.127-.111.191Z"/></g></g><g id="e7Uit0w81Hz64"><g><path d="M282.722,91.376c-5.758-1.455-11.608,2.034-13.063,7.794-1.455,5.759,2.035,11.608,7.794,13.063c19.176,4.845,38.731,12.876,57.082,23.394c1.477-3.06,3.08-6.166,4.817-9.271c1.853-3.31,3.781-6.459,5.773-9.467-20.116-11.551-41.06-20.121-62.403-25.513Z"/></g></g><g id="e7Uit0w81Hz67"><g><path d="M244.739,85.378c-1.511-.093-3.015-.17-4.512-.234-5.926-.301-10.954,4.347-11.21,10.282s4.349,10.954,10.283,11.21c1.371.06,2.748.131,4.13.215.224.014.445.02.665.02c5.642,0,10.378-4.395,10.726-10.102.361-5.93-4.152-11.03-10.082-11.391Z"/></g></g><g id="e7Uit0w81Hz70"><g><path d="M218.035,95.685c-.597-5.909-5.871-10.215-11.783-9.619-42.495,4.295-79.21,20.498-106.175,46.858-6.896,6.741-13.062,14.062-18.48,21.894c2.82,2.745,5.731,5.198,8.702,7.266c4.358,3.034,5.77,8.713,3.596,13.366c22.059-38.005,62.312-62.705,114.521-67.982c5.91-.598,10.217-5.873,9.619-11.783Z"/></g></g><g id="e7Uit0w81Hz73" transform="translate(-1.267066-.212007)"><path id="e7Uit0w81Hz74" d="M148.166,447.616c-.103-.497-8.929-43.823-10.199-85.626-.189-6.29-.211-12.548-.004-18.62.202-5.937-4.447-10.913-10.384-11.117-5.903-.209-10.913,4.447-11.115,10.383-.067,1.948-.108,3.911-.133,5.883-.44,34.193,5.047,71.375,8.361,90.515h-13.017c-9.719-24.339-42.511-114.05-36.185-201.744c1.619-22.43,7.639-42.686,17.461-60.194-2.093,2.976-5.421,4.573-8.806,4.573-2.121,0-4.263-.626-6.136-1.93-2.563-1.784-5.082-3.796-7.554-5.969-9.226,18.669-14.801,39.537-16.42,61.971C46.27,343.386,92.67,449.671,94.649,454.142c1.723,3.893,5.579,6.403,9.837,6.403h33.15c3.233,0,6.296-1.455,8.337-3.963c2.039-2.506,2.846-5.8,2.193-8.966Z"/></g><g id="e7Uit0w81Hz75"><g><path d="M384.104,170.433c-.029-.167-.045-.335-.066-.502.022.168.037.336.066.502Z"/></g></g><g id="e7Uit0w81Hz78"><g><path d="M384.331,171.447c-.046-.167-.079-.336-.116-.503.038.168.071.336.116.503Z"/></g></g><g id="e7Uit0w81Hz81"><g><path d="M383.976,169.407c-.013-.165-.012-.329-.017-.494.005.165.005.329.017.494Z"/></g></g><g id="e7Uit0w81Hz84"><g><path d="M385.605,174.324c-.092-.146-.172-.299-.257-.449.084.15.163.302.257.449Z"/></g></g><g id="e7Uit0w81Hz87"><g><path d="M383.947,168.373c.003-.16.018-.321.029-.481-.011.162-.026.321-.029.481Z"/></g></g><g id="e7Uit0w81Hz90"><g><path d="M384.657,172.438c-.062-.162-.112-.329-.166-.495.054.165.104.331.166.495Z"/></g></g><g id="e7Uit0w81Hz93"><g><path d="M385.082,173.399c-.079-.156-.143-.317-.214-.477.07.16.135.321.214.477Z"/></g></g><g id="e7Uit0w81Hz96"><g><path d="M386.609,175.653c.099.112.188.23.293.34.015.015.031.028.046.044-.119-.124-.226-.256-.339-.384Z"/></g></g><g id="e7Uit0w81Hz99"><g><path d="M384.017,167.343c.018-.155.048-.309.073-.463-.026.154-.056.308-.073.463Z"/></g></g><g id="e7Uit0w81Hz102"><g><path d="M385.275,163.396c.079-.144.171-.282.257-.422-.086.14-.178.279-.257.422Z"/></g></g><g id="e7Uit0w81Hz105"><g><path d="M386.489,161.635c.112-.131.236-.256.355-.383-.118.127-.243.251-.355.383Z"/></g></g><g id="e7Uit0w81Hz108"><g><path d="M416.157,82.639c-1.579-5.013-6.552-8.158-11.758-7.422-22.988,3.231-43.313,17.575-59.274,41.673-1.992,3.007-3.92,6.157-5.772,9.466-1.737,3.105-3.34,6.211-4.817,9.271-10.443,21.636-14.552,40.989-14.745,41.913-1.211,5.816,2.521,11.512,8.337,12.724.74.155,1.477.228,2.204.228c4.989,0,9.462-3.489,10.52-8.565.047-.226,4.844-22.822,17.249-45.018.009-.016.017-.031.026-.047.037-.066.074-.126.111-.19c11.188-19.91,24.505-32.606,39.692-37.868c3.033,15.565,6.199,45.975-10.641,61.984-.015.015-.028.031-.044.045c4.258-4.094,11.027-3.995,15.158.243c2.28,2.341,4.429,4.435,6.508,6.461.148.145.295.287.442.431c22.96-32.643,7.533-83.012,6.804-85.329Z"/></g></g><g id="e7Uit0w81Hz111"><g><path d="M385.833,162.493c.096-.14.205-.272.309-.409-.104.135-.212.269-.309.409Z"/></g></g><g id="e7Uit0w81Hz114"><g><path d="M384.185,166.321c.032-.15.076-.298.115-.446-.039.148-.083.295-.115.446Z"/></g></g><g id="e7Uit0w81Hz117"><g><path d="M384.814,164.34c.062-.145.137-.286.205-.428-.068.142-.143.283-.205.428Z"/></g></g><g id="e7Uit0w81Hz120"><g><path d="M384.451,165.318c.047-.147.106-.291.159-.438-.054.147-.112.291-.159.438Z"/></g></g><g id="e7Uit0w81Hz123"><g><path d="M386.225,175.204c-.105-.134-.198-.275-.296-.413.098.139.191.279.296.413Z"/></g></g><g id="e7Uit0w81Hz126"><g><path d="M503.954,256.244c-14.129-3.696-52.917-18.167-62.585-40.462-12.284-28.355-21.046-37.115-32.018-47.816-.147-.144-.294-.287-.442-.431-2.078-2.026-4.227-4.121-6.508-6.461-4.13-4.238-10.899-4.337-15.157-.242-.017.017-.037.031-.054.047-.123.119-.23.248-.346.373-.119.127-.243.252-.355.383-.124.145-.233.298-.347.449-.103.136-.213.269-.309.409-.109.157-.202.321-.302.482-.086.141-.177.279-.257.422-.094.169-.172.343-.256.515-.069.143-.143.283-.205.428-.076.177-.138.359-.204.54-.054.146-.113.29-.159.438-.058.184-.102.37-.151.556-.039.148-.083.296-.115.446-.04.185-.066.372-.096.56-.025.154-.055.308-.073.463-.021.183-.029.367-.04.551-.011.16-.026.321-.029.481-.003.18.006.359.012.539.005.165.004.329.017.494.013.175.04.35.062.525.021.168.037.336.066.502.03.171.073.34.111.51.038.168.07.337.116.503.046.168.105.331.159.496.054.166.103.332.166.495.062.165.139.324.211.485.07.159.136.321.214.477.081.161.175.318.266.477.085.15.165.302.257.449.101.159.215.312.326.468.098.138.19.279.296.413.12.154.254.299.384.447.112.128.219.26.339.384.017.017.03.037.047.054c2.473,2.535,4.721,4.728,6.896,6.847c10.223,9.967,16.976,16.551,27.739,41.398c12.257,28.267,50.162,43.989,67.794,49.942l-5.183,40.606c-9.186,5.734-35.769,20.57-81.874,32.84-.228.06-.448.123-.677.183-.197.053-.398.101-.595.154-14.661,3.864-30.151,7.152-46.069,9.774-9.312,1.542-19.03,2.898-28.885,4.028-.114.013-.224.04-.337.056-.194.028-.388.057-.578.096-.166.033-.328.074-.492.115-.185.046-.37.094-.552.151-.164.051-.323.108-.482.166-.172.062-.344.126-.512.196-.16.068-.316.142-.472.217-.158.076-.316.153-.47.236-.156.085-.307.175-.458.268-.145.088-.29.177-.43.271-.148.1-.292.207-.435.314-.133.1-.267.201-.395.307-.138.114-.27.232-.401.353-.124.113-.246.225-.365.343-.125.125-.243.254-.361.384-.113.126-.227.251-.333.382-.11.133-.214.271-.317.41-.103.138-.205.276-.301.418-.096.141-.184.286-.272.431-.091.151-.181.3-.265.454-.081.148-.154.3-.227.452-.077.159-.154.319-.223.483-.067.156-.125.315-.184.475-.061.166-.122.332-.174.501-.052.166-.096.333-.14.501-.044.17-.088.34-.124.513-.037.174-.065.351-.091.527-.027.173-.054.346-.072.522-.019.18-.029.362-.04.545-.01.177-.019.355-.019.535-.001.181.008.364.016.546.012.246.019.493.047.741.629,5.486,5.28,9.531,10.672,9.531.41,0,.824-.023,1.239-.071c3.479-.399,6.931-.834,10.368-1.285c3.114-.41,6.201-.84,9.261-1.29c3.475-.512,6.926-1.039,10.311-1.599c3.668-.604,7.31-1.249,10.933-1.92c8.545-1.584,16.952-3.351,25.156-5.29c4.248-1.005,8.445-2.051,12.575-3.145c2.941-.778,5.784-1.568,8.579-2.365c56.692-16.156,83.707-35.675,84.881-36.539c2.373-1.744,3.927-4.384,4.301-7.306l6.955-54.477c.684-5.367-2.728-10.406-7.959-11.774Z"/></g></g><g id="e7Uit0w81Hz129"><g><path id="e7Uit0w81Hz131" d="M374.624,227.603c-14.937,0-27.089,12.146-27.089,27.076c0,5.94,4.817,10.756,10.756,10.756c5.94,0,10.756-4.816,10.756-10.756c0-3.068,2.501-5.563,5.576-5.563c3.069,0,5.564,2.495,5.564,5.563c0,5.94,4.817,10.756,10.756,10.756s10.756-4.817,10.756-10.756c.001-14.93-12.146-27.076-27.075-27.076Z"/></g></g><g id="e7Uit0w81Hz132"><g><path d="M36.775,123.696c-.002-.006-.004-.012-.006-.017-1.653-4.375-2.999-8.643-4.076-12.791-5.966.114-12.492-.61-19.543-2.217-5.792-1.323-11.559,2.306-12.878,8.097-1.32,5.791,2.305,11.557,8.097,12.877c8.141,1.855,15.875,2.784,23.147,2.784c2.983,0,5.884-.162,8.706-.474-1.237-2.713-2.392-5.468-3.447-8.259Z"/></g></g><g id="e7Uit0w81Hz135" transform="translate(.000002 0.000004)"><g id="e7Uit0w81Hz136"><path d="M89.11,78.361C87.661,63.087,77.793,52.305,64.556,51.532c-15.014-.888-23.328,5.982-27.675,11.892-7.94,10.799-9.326,27.685-4.19,47.464c1.078,4.149,2.423,8.417,4.076,12.791.003.005.005.011.008.016-.002-.006-.004-.012-.008-.017-2.1-5.558.703-11.765,6.26-13.864s11.764.702,13.864,6.26c1.279,3.385,2.725,6.699,4.3,9.923C81.574,115.9,90.753,95.674,89.11,78.361ZM53.561,105.696c-3.789-14.512-2.676-25.001.653-29.528c1.114-1.516,3.003-3.202,7.765-3.202.417,0,.857.014,1.32.041c3.611.211,4.326,6.653,4.395,7.385.696,7.343-2.803,18.712-14.133,25.304Z"/></g></g><g id="e7Uit0w81Hz138" transform="translate(.000003 0)"><g id="e7Uit0w81Hz139"><g><path d="M90.298,162.084c-2.97-2.067-5.88-4.522-8.702-7.266-7.846-7.634-14.947-17.648-20.405-28.82-1.575-3.225-3.021-6.538-4.3-9.923-2.1-5.558-8.306-8.359-13.864-6.26s-8.36,8.306-6.26,13.864c.002.005.004.012.008.017c1.055,2.79,2.209,5.546,3.447,8.259c7.515,16.476,18.24,31.282,30.23,41.817c2.472,2.173,4.992,4.184,7.554,5.969c1.874,1.303,4.016,1.929,6.136,1.929c3.385,0,6.714-1.596,8.806-4.573.01-.014.022-.026.031-.04.359-.516.656-1.056.913-1.607c2.175-4.654.764-10.331-3.594-13.366Z"/></g></g></g></svg>